<svg xmlns="http://www.w3.org/2000/svg" viewBox="0 0 441.78 65"><defs><style>.b73de608-8938-4662-aaa5-3b25f7f24d8c{fill:#fff;stroke:#000;stroke-miterlimit:10;stroke-width:2px;}</style></defs><g id="be12ba5d-20f6-4739-8396-880e6043a220" data-name="图层 2"><polygon class="b73de608-8938-4662-aaa5-3b25f7f24d8c" points="27 13 103 13 103 1 1 1 1 64 103 64 103 52 27 52 27 13"/><path class="b73de608-8938-4662-aaa5-3b25f7f24d8c" d="M213,100v63h26V138h50v25h26V100Zm76,24.52H239V114h50Z" transform="translate(-99 -99)"/><polygon class="b73de608-8938-4662-aaa5-3b25f7f24d8c" points="252 13 328 13 328 1 226 1 226 64 328 64 328 52 252 52 252 40 302 40 302 26 252 26 252 13"/><path class="b73de608-8938-4662-aaa5-3b25f7f24d8c" d="M437.78,100v63h26V138h76V100Zm76,24.52h-50V114h50Z" transform="translate(-99 -99)"/></g></svg>